# xmcd CD database file
#
# Track frame offsets:
#	150
#	12555
#	24453
#	38678
#	49118
#	66905
#	77290
#	94480
#	108124
#	122477
#	142217
#	158378
#	167033
#
# Disc length: 2483 seconds
#
# Revision: 0
# Processed by: cddbd v1.5.2PL0 Copyright (c) Steve Scherf et al.
# Submitted via: CDex 1.70beta2
#
DISCID=9e09b10d
DTITLE=Waldemar_Matuska - Niagara
DYEAR=1900
DGENRE=Country
TTITLE0=Zlatokop_Tom
TTITLE1=More_huci
TTITLE2=Mym_domovem_zticjla_je_putyka
TTITLE3=Marinak
TTITLE4=Cesta_morem
TTITLE5=Namornickej_bal
TTITLE6=Niagara
TTITLE7=Rikatado
TTITLE8=Libam_Te_dnes_naposledy
TTITLE9=Anifa
TTITLE10=Chata_na_vode
TTITLE11=Tuhle_rundu_platim_ja
TTITLE12=Az_prijde_ta_chvile
EXTD=
EXTT0=
EXTT1=
EXTT2=
EXTT3=
EXTT4=
EXTT5=
EXTT6=
EXTT7=
EXTT8=
EXTT9=
EXTT10=
EXTT11=
EXTT12=
PLAYORDER=
